<?xml version="1.0" encoding="UTF-8" standalone="no"?>
<!-- Created with Inkscape (http://www.inkscape.org/) -->

<svg
   xmlns:dc="http://purl.org/dc/elements/1.1/"
   xmlns:cc="http://creativecommons.org/ns#"
   xmlns:rdf="http://www.w3.org/1999/02/22-rdf-syntax-ns#"
   xmlns:svg="http://www.w3.org/2000/svg"
   xmlns="http://www.w3.org/2000/svg"
   xmlns:sodipodi="http://sodipodi.sourceforge.net/DTD/sodipodi-0.dtd"
   xmlns:inkscape="http://www.inkscape.org/namespaces/inkscape"
   width="256"
   height="256"
   id="svg2"
   version="1.1"
   inkscape:version="0.48.3.1 r9886"
   sodipodi:docname="knyfe-logo.svg">
  <defs
     id="defs4">
    <clipPath
       clipPathUnits="userSpaceOnUse"
       id="clipPath5173">
      <path
         style="font-size:medium;font-style:normal;font-variant:normal;font-weight:normal;font-stretch:normal;text-indent:0;text-align:start;text-decoration:none;line-height:normal;letter-spacing:normal;word-spacing:normal;text-transform:none;direction:ltr;block-progression:tb;writing-mode:lr-tb;text-anchor:start;baseline-shift:baseline;color:#000000;fill:#3f6782;fill-opacity:1;fill-rule:nonzero;stroke:none;stroke-width:2;marker:none;visibility:visible;display:inline;overflow:visible;enable-background:accumulate;font-family:Sans;-inkscape-font-specification:Sans"
         d="m 544.96992,331.91877 c -1.36393,0.0442 -2.6271,0.3841 -3.64642,1.18988 -0.2341,0.1775 -0.40091,0.44162 -0.4606,0.72928 -0.62478,2.95744 0.3072,7.41615 2.22624,13.35739 1.91904,5.94126 4.92569,13.25147 8.75139,21.22597 7.65136,15.94901 18.63686,34.60065 31.0521,50.43567 l 7.25444,9.28876 c -1.66673,1.03603 -3.71483,2.78724 -5.79588,4.75953 0.1602,-0.96612 0.39066,-2.02096 0.49898,-2.87875 0.24986,-1.97864 0.34569,-3.5199 0.2303,-4.56761 -0.34832,-3.16325 -1.92565,-5.34199 -3.99187,-6.79385 -1.17429,-0.82513 -2.9216,-1.97267 -5.0282,-2.26461 -0.10158,-0.0128 -0.32956,-0.0633 -0.57576,-0.0768 -0.0484,-0.003 -0.0609,4.7e-4 -0.11509,0 -0.63891,-0.0324 -0.99787,0.0768 -0.99796,0.0768 a 1.2283887,1.2283887 0 0 0 -0.2303,0.0383 c -1.06677,0.19731 -2.1228,0.66689 -3.33934,1.3818 -1.71115,1.00558 -3.91083,2.8739 -6.10295,4.95145 0.1602,-0.96613 0.39066,-2.02097 0.49899,-2.87875 0.24984,-1.97865 0.38406,-3.51991 0.26867,-4.56761 -0.34833,-3.16326 -1.96404,-5.38037 -4.03024,-6.83224 -1.17431,-0.82514 -2.88324,-1.93427 -4.98983,-2.22622 a 1.2283887,1.2283887 0 0 0 -0.0384,-0.0383 c -0.10023,-0.0126 -0.29643,-0.0247 -0.53737,-0.0384 -0.0515,-0.003 -0.0572,4.9e-4 -0.11509,0 -0.64431,-0.0338 -1.03626,0.0768 -1.03634,0.0768 a 1.2283887,1.2283887 0 0 0 -0.19192,0.0383 c -1.06677,0.1973 -2.16119,0.66687 -3.37773,1.38179 -1.71115,1.00557 -3.91083,2.83552 -6.10295,4.91307 0.15904,-0.96031 0.39128,-2.02575 0.49899,-2.87874 0.24984,-1.97866 0.38407,-3.48153 0.26868,-4.52924 -0.34833,-3.16325 -1.96405,-5.38035 -4.03025,-6.83224 -0.81235,-0.57081 -1.87013,-1.23215 -3.10904,-1.72723 -0.40942,-0.16364 -0.82517,-0.28859 -1.22827,-0.38384 -0.19052,-0.0452 -0.39579,-0.11804 -0.65252,-0.15354 a 1.2283887,1.2283887 0 0 0 -0.0383,0 c -0.1216,-0.0154 -0.32296,-0.074 -0.65252,-0.0768 l 0,0.0383 c -0.63891,-0.0324 -0.99788,0.0768 -0.99796,0.0768 a 1.2283887,1.2283887 0 0 0 -0.2303,0 c -1.06678,0.1973 -2.16117,0.66688 -3.37774,1.38179 -1.71114,1.00558 -3.91082,2.8739 -6.10294,4.95146 0.15903,-0.96032 0.39128,-2.02577 0.49898,-2.87875 0.24985,-1.97866 0.38405,-3.48154 0.26868,-4.52923 -0.34832,-3.16326 -1.92565,-5.38036 -3.99186,-6.83224 -1.13293,-0.7961 -2.84413,-1.99385 -4.87468,-2.30299 -0.53185,-0.081 -1.11597,-0.0223 -1.68886,0.0383 -0.013,8.9e-4 -0.0254,-8.7e-4 -0.0383,0 -0.14338,0.0161 -0.27662,-0.0268 -0.42222,0 a 1.2283887,1.2283887 0 0 0 -0.42223,2.26462 c 0.007,0.006 0.0314,-0.006 0.0383,0 1.32274,0.89575 1.31511,2.35364 1.8424,4.10701 0.65325,2.17216 1.04879,4.13406 0.49898,8.55948 -0.2097,1.68784 -0.54514,4.21277 -0.6909,6.71709 -0.14575,2.5043 -0.15365,4.95997 0.57576,6.83222 0.22798,0.58521 0.53647,1.13685 1.03634,1.57372 0.49987,0.43687 1.18415,0.69618 1.88078,0.6909 -0.069,5.1e-4 0.0268,0.0208 0.26869,0 a 1.2283887,1.2283887 0 0 0 0.11509,0 c 1.4e-4,-3e-5 0.0855,-0.0487 0.15353,-0.0768 0.0441,-0.007 0.0126,0.0151 0.0768,0 0.0912,-0.0211 0.1772,-0.12617 0.26868,-0.15354 0.67558,-0.20205 1.34983,-0.49445 2.03433,-1.03635 2.09868,-1.66145 5.12893,-4.21757 8.13726,-7.06253 1.57736,-1.49171 3.56925,-2.8425 5.64235,-4.18378 0.35903,1.68225 0.56589,3.51317 0.15352,6.83223 -0.27973,2.25158 -0.83504,5.98399 -0.80605,9.212 0.0145,1.614 0.15781,3.12758 0.65253,4.37569 0.24734,0.62406 0.59445,1.21237 1.1515,1.65048 0.55703,0.43811 1.32656,0.64098 2.07269,0.57575 a 1.2283887,1.2283887 0 0 0 0.0383,0 c 0.17072,-0.0189 0.24217,-0.058 0.30706,-0.0768 0.76468,-0.1773 1.52581,-0.57461 2.30299,-1.18987 2.09868,-1.66147 5.12895,-4.21756 8.13726,-7.06254 1.57737,-1.49172 3.56926,-2.8425 5.64235,-4.18378 0.35905,1.68224 0.5659,3.55154 0.15353,6.87061 -0.27974,2.25159 -0.83503,5.98398 -0.80604,9.212 0.0145,1.61401 0.1578,3.08919 0.65251,4.33731 0.24735,0.62406 0.59446,1.21238 1.1515,1.65048 0.55705,0.43812 1.32657,0.64099 2.0727,0.57575 a 1.2283887,1.2283887 0 0 0 0.0384,0 c 0.15031,-0.0166 0.20682,-0.0592 0.26868,-0.0768 0.76472,-0.17729 1.5642,-0.57463 2.34138,-1.18989 2.09867,-1.66144 5.12895,-4.17916 8.13726,-7.02414 1.5784,-1.49269 3.56753,-2.88012 5.64235,-4.22217 0.35905,1.68225 0.52759,3.55155 0.11509,6.87062 -0.27974,2.25158 -0.79666,5.98397 -0.76766,9.21199 0.0145,1.614 0.15781,3.08921 0.65252,4.33732 0.24734,0.62405 0.59445,1.21236 1.1515,1.65048 0.55703,0.4381 1.32656,0.67936 2.07269,0.61413 0.17061,-0.0188 0.24211,-0.058 0.30707,-0.0768 0.7647,-0.1773 1.52581,-0.57462 2.303,-1.18989 2.09866,-1.66145 5.12894,-4.21756 8.13726,-7.06252 1.53042,-1.44734 3.48015,-2.76691 5.48881,-4.06864 l 0.26868,0.38385 c 0.28641,1.55786 0.40992,3.34324 0.0384,6.33323 -0.1297,1.04386 -0.30699,2.43251 -0.4606,3.9151 l -98.03105,25.90874 c 1.23076,-7.84308 2.32735,-15.58603 2.41816,-19.23003 1.8e-4,-0.007 -1.8e-4,-0.0312 0,-0.0383 0.31518,-4.8996 -0.18247,-11.14839 -4.83631,-14.62404 l -0.11509,-0.0768 -0.15352,-0.0768 c -1.19657,-0.50823 -2.29084,-0.64925 -3.22421,-0.0768 -0.93336,0.57247 -1.19375,1.6023 -1.18987,2.45651 0.007,1.55371 0.64181,3.09955 1.38179,4.26056 0.86359,4.22634 -1.13535,9.41164 -5.2969,10.82409 l -0.0383,0 -0.0383,0.0383 c -1.96772,0.80229 -3.97169,0.3278 -5.64235,-0.88282 -1.67066,-1.21061 -2.87458,-3.1924 -3.07067,-5.18174 -0.006,-6.05478 0.0587,-12.08148 0.53737,-18.07854 l -0.0383,0 c 0.32668,-1.93204 0.0483,-4.11202 0.2303,-5.79588 0.0928,-0.85864 0.27108,-1.54869 0.57574,-1.95755 0.30469,-0.40885 0.69125,-0.67122 1.6121,-0.76766 5.268,-0.14137 10.54477,-0.28708 15.85231,-0.80606 l 1.11313,-0.11508 0,-1.11312 c 0.0241,-4.60802 -1.90194,-8.72321 -3.45451,-12.55134 l -0.0383,-0.0768 -0.0768,-0.11509 c -3.08174,-5.00672 -6.6676,-10.41514 -12.32104,-13.43416 l -1.80401,-4.26055 -0.30707,-0.72928 -0.80606,0 c -2.61522,0.008 -5.25289,0.0298 -7.86857,0.0383 l -0.72929,0 -0.34544,0.65251 c -2.13142,4.11261 -3.47298,8.50639 -4.606,12.85841 l -0.0383,0.11509 0,0.11508 c -0.4424,7.13104 -0.77448,14.27495 -1.03635,21.41789 l 0,0.0384 c -0.1874,12.04158 -0.93963,24.07926 -1.15151,36.19546 l 0,0.0383 c 0.075,8.65645 -0.16315,17.57406 1.68888,26.29257 -2.51629,4.36529 -3.31589,9.8807 -1.80402,16.42805 1.70244,7.3726 5.49628,12.30265 10.47864,14.96949 4.98236,2.66685 11.04626,3.10588 17.23412,1.88078 l 153.11082,-30.32251 c 12.79014,-2.53224 19.90969,-17.34325 16.50482,-32.08844 l 0,-0.0768 c -1.06197,-4.55265 -3.0565,-8.64013 -5.64235,-12.05237 -0.94514,-1.81254 -2.04579,-3.59808 -3.37772,-5.2969 l -57.88203,-73.84924 c -4.42984,-5.65004 -14.85599,-15.47401 -25.33298,-23.22192 -5.23849,-3.87394 -10.45942,-7.2189 -15.00787,-9.21198 -2.27423,-0.99654 -4.38707,-1.64459 -6.29486,-1.8424 -0.47695,-0.0496 -0.92716,-0.0532 -1.3818,-0.0384 z"
         id="path5175"
         inkscape:connector-curvature="0" />
    </clipPath>
  </defs>
  <sodipodi:namedview
     id="base"
     pagecolor="#ffffff"
     bordercolor="#666666"
     borderopacity="1.0"
     inkscape:pageopacity="0.0"
     inkscape:pageshadow="2"
     inkscape:zoom="1.979899"
     inkscape:cx="192.27285"
     inkscape:cy="104.89891"
     inkscape:document-units="px"
     inkscape:current-layer="layer1"
     showgrid="false"
     showguides="true"
     inkscape:guide-bbox="true"
     inkscape:object-nodes="true"
     fit-margin-top="0"
     fit-margin-left="0"
     fit-margin-right="0"
     fit-margin-bottom="0"
     inkscape:window-width="1920"
     inkscape:window-height="1029"
     inkscape:window-x="0"
     inkscape:window-y="27"
     inkscape:window-maximized="1" />
  <metadata
     id="metadata7">
    <rdf:RDF>
      <cc:Work
         rdf:about="">
        <dc:format>image/svg+xml</dc:format>
        <dc:type
           rdf:resource="http://purl.org/dc/dcmitype/StillImage" />
        <dc:title />
      </cc:Work>
    </rdf:RDF>
  </metadata>
  <g
     inkscape:label="Layer 1"
     inkscape:groupmode="layer"
     id="layer1"
     transform="translate(-189.40361,-364.52158)">
    <g
       transform="matrix(0.05843432,0.25305725,-0.25305725,0.05843432,392.55913,456.24184)"
       id="g4937"
       style="fill:#d8e5ee;fill-opacity:1;stroke:none" />
    <path
       style="font-size:medium;font-style:normal;font-variant:normal;font-weight:normal;font-stretch:normal;text-indent:0;text-align:start;text-decoration:none;line-height:normal;letter-spacing:normal;word-spacing:normal;text-transform:none;direction:ltr;block-progression:tb;writing-mode:lr-tb;text-anchor:start;baseline-shift:baseline;color:#000000;fill:#4d4d4d;fill-opacity:1;fill-rule:nonzero;stroke:none;stroke-width:1;marker:none;visibility:visible;display:inline;overflow:visible;enable-background:accumulate;font-family:Sans;-inkscape-font-specification:Sans"
       d="m 300.22746,467.12886 c -4.5e-4,2.4e-4 0.0605,-0.0312 0.0673,-0.0335 a 0.53805709,0.53805709 0 0 0 -0.0673,0.0335 z"
       id="path5406"
       inkscape:connector-curvature="0" />
    <path
       style="font-size:medium;font-style:normal;font-variant:normal;font-weight:normal;font-stretch:normal;text-indent:0;text-align:start;text-decoration:none;line-height:normal;letter-spacing:normal;word-spacing:normal;text-transform:none;direction:ltr;block-progression:tb;writing-mode:lr-tb;text-anchor:start;baseline-shift:baseline;color:#000000;fill:#4d4d4d;fill-opacity:1;fill-rule:nonzero;stroke:none;stroke-width:1;marker:none;visibility:visible;display:inline;overflow:visible;enable-background:accumulate;font-family:Sans;-inkscape-font-specification:Sans"
       d="m 249.3189,481.62133 c -0.0372,0.0652 -0.011,0.19998 0,0.33625 -0.0213,-0.0887 -0.0606,-0.14851 -0.0335,-0.23538 0.0541,-0.17375 0.0931,-0.20513 0.0335,-0.10082 z"
       id="path5400"
       inkscape:connector-curvature="0" />
    <path
       style="font-size:medium;font-style:normal;font-variant:normal;font-weight:normal;font-stretch:normal;text-indent:0;text-align:start;text-decoration:none;line-height:normal;letter-spacing:normal;word-spacing:normal;text-transform:none;direction:ltr;block-progression:tb;writing-mode:lr-tb;text-anchor:start;baseline-shift:baseline;color:#000000;fill:#4d4d4d;fill-opacity:1;fill-rule:nonzero;stroke:none;stroke-width:1;marker:none;visibility:visible;display:inline;overflow:visible;enable-background:accumulate;font-family:Sans;-inkscape-font-specification:Sans"
       d="m 250.22679,481.62133 0.0335,0 c 0.0218,0.0356 -0.008,0.10501 0,0.16812 -0.0139,-0.064 -0.0113,-0.12222 -0.0335,-0.16812 z"
       id="path5371"
       inkscape:connector-curvature="0" />
    <path
       style="font-size:medium;font-style:normal;font-variant:normal;font-weight:normal;font-stretch:normal;text-indent:0;text-align:start;text-decoration:none;line-height:normal;letter-spacing:normal;word-spacing:normal;text-transform:none;direction:ltr;block-progression:tb;writing-mode:lr-tb;text-anchor:start;baseline-shift:baseline;color:#000000;fill:#333333;fill-opacity:1;fill-rule:nonzero;stroke:none;stroke-width:2;marker:none;visibility:visible;display:inline;overflow:visible;enable-background:accumulate;font-family:Sans;-inkscape-font-specification:Sans"
       d="m 303.08561,378.29107 c -1.34196,0.0434 -2.68757,0.40915 -3.79965,1.27775 l 0,0.0335 c -0.4054,0.31604 -0.70235,0.70604 -0.807,1.21051 -0.63727,3.01654 0.28565,7.01557 1.98389,12.2732 1.70284,5.2719 4.33289,11.71029 7.70016,18.72924 6.27712,13.08441 15.16019,28.13425 25.18528,41.42625 -0.81887,-0.41245 -1.7856,-0.79287 -2.85814,-0.94151 0.0623,0.008 -0.24512,-0.0495 -0.57163,-0.0673 -0.0569,-0.003 -0.0777,-5.5e-4 -0.10082,0 -0.0155,3.5e-4 -0.0643,2e-5 -0.0673,0 -0.31488,-0.0112 -0.61288,0.008 -0.80701,0.0335 -0.10512,0.0145 -0.16933,0.019 -0.23537,0.0335 -0.0505,0.0113 -0.0787,0.0273 -0.10083,0.0335 -0.007,0.002 -0.0335,0 -0.0335,0 -0.0344,0.007 -0.0667,0.0256 -0.10082,0.0335 -0.0217,0.005 -0.0458,-0.005 -0.0673,0 l 0,0.0336 c -1.08345,0.21215 -2.09553,0.63201 -3.19439,1.27776 -0.9793,0.5755 -2.17299,1.7006 -3.29527,2.65639 0.20035,-1.61946 0.35218,-2.97448 0.23538,-4.03502 -0.33879,-3.0766 -1.98561,-5.3086 -4.0014,-6.72504 -0.98348,-0.69108 -2.52247,-1.642 -4.43853,-2.01752 a 1.0761142,1.0761142 0 0 0 -0.43734,-0.1678 c -0.17677,-0.0223 -0.32417,-0.0217 -0.538,-0.0335 -0.0539,-0.002 -0.078,-4.9e-4 -0.10083,0 -0.0152,3.3e-4 -0.0619,5e-5 -0.0673,0 -0.31871,-0.0117 -0.60916,0.008 -0.807,0.0335 -0.10717,0.0141 -0.20271,0.0197 -0.26901,0.0335 -0.0663,0.0138 -0.1345,0.0335 -0.1345,0.0335 -0.0237,0.004 -0.0437,0.0281 -0.0673,0.0335 -0.0322,0.008 -0.0692,-0.009 -0.10082,0 l 0,0.0335 c -1.07039,0.21377 -2.09693,0.63281 -3.1944,1.27776 -0.97609,0.57361 -2.16781,1.70579 -3.29527,2.6564 0.20304,-1.63357 0.3528,-2.96881 0.23537,-4.03503 -0.33877,-3.0766 -1.9856,-5.3086 -4.00139,-6.72505 -0.75129,-0.52789 -1.72942,-1.1697 -2.9254,-1.64763 -0.4165,-0.16648 -0.8472,-0.27607 -1.24413,-0.36988 -0.0823,-0.0195 -0.32652,-0.12028 -0.6725,-0.16812 a 1.0761142,1.0761142 0 0 0 -0.0335,0 c 0.0159,0.002 -0.12088,0.003 -0.13451,0 -0.0586,-0.0149 -0.23702,-0.0643 -0.57163,-0.0673 a 1.0761142,1.0761142 0 0 0 -0.20175,0.0335 1.0761142,1.0761142 0 0 0 -0.1345,0 c -0.0226,8.7e-4 -0.0455,0.0327 -0.0673,0.0335 -0.12809,0.007 -0.30661,-0.0133 -0.40351,0 -0.10512,0.0144 -0.16933,0.019 -0.23537,0.0335 -0.0448,9.9e-4 -0.0897,-0.004 -0.1345,0 a 1.0761142,1.0761142 0 0 0 -0.10082,0.0335 c -1.10535,0.20444 -2.16394,0.64656 -3.29528,1.31137 -0.9793,0.57552 -2.17298,1.7006 -3.29527,2.65641 0.2,-1.61409 0.35181,-2.94406 0.23538,-4.00141 -0.33784,-3.06804 -1.94686,-5.30499 -3.96778,-6.72504 -0.99412,-0.69855 -2.60878,-1.89974 -4.70753,-2.21927 -0.65829,-0.10017 -1.24289,-0.0197 -1.7485,0.0335 0.18515,-0.0174 0.17429,-0.0196 -0.0335,0 a 1.0761142,1.0761142 0 0 0 -0.0335,0 c 0.1462,-0.0163 -0.0343,-0.0236 -0.4035,0.0335 -0.0306,0.004 2.2e-4,-0.007 -0.0335,0 -0.93546,0.18561 -1.50881,0.97024 -1.64764,1.71489 -0.13874,0.74412 0.10351,1.67515 0.90788,2.18563 l 0,0.0335 c 0.008,0.003 0.0193,0.0266 0.0335,0.0335 0.30602,0.22468 0.45394,0.44897 0.60525,0.90787 0.16165,0.49033 0.28294,1.203 0.538,2.05115 0.55531,1.84649 0.87258,3.28573 0.40351,7.06129 -0.1826,1.46958 -0.47444,3.70408 -0.60526,5.95166 -0.12993,2.23236 -0.18383,4.5169 0.57163,6.45604 0.23588,0.60549 0.59983,1.24843 1.2105,1.78213 0.4431,0.38725 1.03791,0.47668 1.61402,0.60526 9e-5,9e-5 0.20158,0.13441 0.20175,0.1345 3.3e-4,1.8e-4 0.16017,0.088 0.20174,0.10082 0.0416,0.0128 0.0783,-0.005 0.10082,0 0.0455,0.01 0.078,0.0307 0.10083,0.0335 0.0456,0.007 0.0718,-0.002 0.10082,0 0.0111,2e-5 0.0227,9e-5 0.0335,0 0.0313,9.9e-4 0.0692,1.3e-4 0.10082,0 a 1.0761142,1.0761142 0 0 0 0.0673,0 c 0.009,-9.8e-4 0.017,0.003 0.0335,0 0.0456,-0.002 0.0807,0.004 0.1345,0 0.0224,-3.5e-4 0.0448,9.9e-4 0.0673,0 a 1.0761142,1.0761142 0 0 0 0.10083,0 c 0,0 0.0713,-0.0448 0.1345,-0.0673 0.0505,-0.007 0.10383,-0.0263 0.1345,-0.0335 0.0663,-0.0154 0.0505,-0.0158 0.10083,-0.0336 0.10779,-0.0382 0.14973,-0.0653 0.20175,-0.10082 0.0346,-0.0236 0.11642,-0.0519 0.1345,-0.0673 0.64202,-0.20415 1.34076,-0.50662 2.01751,-1.04239 1.86443,-1.47598 4.53208,-3.73522 7.19579,-6.25429 0.91377,-0.86414 2.17997,-1.66053 3.39615,-2.48826 0.0919,1.00275 0.084,2.14127 -0.1345,3.90052 -0.24153,1.94397 -0.7327,5.24587 -0.70614,8.20456 0.0133,1.47157 0.12193,2.93253 0.63888,4.23677 0.2584,0.65191 0.65984,1.34413 1.34501,1.88301 0.71044,0.55875 1.61299,0.75918 2.48827,0.70613 l 0,0.0335 c 0.0328,-0.002 0.0682,0.003 0.10082,0 a 1.0761142,1.0761142 0 0 0 0.0673,0 c 0.23742,-0.0263 0.37863,-0.0996 0.36987,-0.10082 -9.9e-4,-2.4e-4 0.0852,-0.005 0.0673,0 l 0,-0.0335 c 0.83509,-0.20677 1.63634,-0.61592 2.3874,-1.21051 1.86441,-1.47599 4.53207,-3.73519 7.19579,-6.25428 0.91377,-0.86416 2.17997,-1.66054 3.39615,-2.48827 0.0919,1.01298 0.084,2.17553 -0.1345,3.93415 -0.24152,1.94395 -0.73269,5.24585 -0.70614,8.20455 0.0133,1.47173 0.12472,2.90594 0.63889,4.20315 0.25839,0.65191 0.65983,1.34412 1.345,1.88301 0.71044,0.55875 1.61299,0.75917 2.48827,0.70613 l 0,0.0335 c 0.0328,-0.002 0.0683,0.003 0.10082,0 a 1.0761142,1.0761142 0 0 0 0.0673,0 c 0.2548,-0.0281 0.38851,-0.10852 0.33625,-0.10082 -0.01,9.9e-4 0.10179,-0.01 0.0673,0 l 0,-0.0335 c 0.82975,-0.2046 1.65661,-0.60537 2.42102,-1.21051 1.85806,-1.47098 4.52857,-3.69824 7.19579,-6.22067 0.91469,-0.86501 2.15563,-1.69037 3.36253,-2.52188 0.0825,1.01227 0.0848,2.1698 -0.13451,3.93415 -0.24301,1.95591 -0.699,5.25438 -0.6725,8.20455 0.0133,1.47173 0.12473,2.90595 0.63888,4.20315 0.25839,0.65191 0.65983,1.34413 1.345,1.88301 0.696,0.5474 1.60293,0.80078 2.5219,0.73975 l -70.54569,18.66199 c 0.95153,-6.17571 1.84064,-12.31703 1.91665,-15.36672 0.002,-0.099 0.002,-0.12113 0,-0.0335 0.28055,-4.41971 -0.14186,-10.33439 -4.67391,-13.71908 a 1.0761142,1.0761142 0 0 0 -0.0335,-0.0335 l -0.10082,-0.0673 a 1.0761142,1.0761142 0 0 0 -0.1345,-0.0673 l -0.13451,-0.0673 a 1.0761142,1.0761142 0 0 0 -0.0335,0 c -1.19958,-0.50951 -2.62897,-0.73865 -3.83327,0 -1.23189,0.75558 -1.55116,2.08901 -1.54676,3.0599 0.008,1.53679 0.57752,2.9217 1.24414,4.03503 0.30069,1.58483 0.0827,3.3995 -0.60526,4.90927 -0.69054,1.51527 -1.80393,2.70762 -3.26164,3.22802 a 1.0761142,1.0761142 0 0 0 -0.20176,0.0673 c -1.34995,0.5504 -2.65985,0.26015 -3.90053,-0.63889 -1.21064,-0.87728 -2.11643,-2.38172 -2.25288,-3.76602 -0.003,-5.26159 0.058,-10.46486 0.47075,-15.63571 a 1.0761142,1.0761142 0 0 0 -0.0335,-0.30263 1.0761142,1.0761142 0 0 0 0,-0.0335 c 0.22197,-1.77322 0.0762,-3.5799 0.20175,-4.74115 0.0721,-0.66714 0.26221,-1.12265 0.30262,-1.17688 0.13813,-0.18535 0.002,-0.1687 0.63889,-0.23537 4.59365,-0.1233 9.21086,-0.24889 13.88721,-0.70614 l 0.97513,-0.10082 a 1.0761142,1.0761142 0 0 0 0.97513,-1.076 l 0,-0.97513 c 0.0227,-4.33996 -1.74894,-8.0837 -3.09352,-11.39896 a 1.0761142,1.0761142 0 0 0 -0.0336,-0.0673 l -0.0335,-0.0673 a 1.0761142,1.0761142 0 0 0 -0.0673,-0.1345 l -0.0673,-0.0673 c -0.004,-0.008 0.004,-0.0262 0,-0.0335 -2.64689,-4.29919 -5.82899,-9.03694 -10.86095,-11.86969 l -1.44588,-3.42977 -0.269,-0.63888 a 1.0761142,1.0761142 0 0 0 -0.97513,-0.6725 l -0.70613,0 c -2.29445,0.008 -4.60515,0.0262 -6.89317,0.0335 l -0.63888,0 a 1.0761142,1.0761142 0 0 0 -0.9415,0.57162 l -0.30263,0.57163 c -1.91457,3.6942 -3.10576,7.61304 -4.10227,11.43257 -0.007,0.0236 -0.0277,0.0437 -0.0335,0.0673 l 0,0.0335 a 1.0761142,1.0761142 0 0 0 -0.0674,0.33657 l 0,0.0335 0,0.0673 c -0.38617,6.23588 -0.67902,12.48708 -0.90788,18.72923 a 1.0761142,1.0761142 0 0 0 0,0.0335 l 0,0.0335 c -0.16452,10.50415 -0.82278,21.03993 -1.00875,31.67495 a 1.0761142,1.0761142 0 0 0 0,0.0335 l 0,0.0335 c 0.0643,7.42755 -0.12031,15.19428 1.44588,22.86514 -2.19336,4.02123 -2.84703,9.01852 -1.51314,14.79509 1.54659,6.69767 5.06687,11.33058 9.71769,13.81996 4.64167,2.48449 10.20364,2.85726 15.80384,1.74851 l 134.13095,-26.56391 c 5.95707,-1.17941 10.60596,-5.21275 13.31559,-10.59194 2.67782,-5.31605 3.49038,-11.94355 2.01751,-18.56112 -0.005,-0.022 0.005,-0.0453 0,-0.0673 a 1.0761142,1.0761142 0 0 0 -0.0336,-0.16813 1.0761142,1.0761142 0 0 0 0,-0.0673 c -0.95345,-4.08744 -2.73283,-7.74474 -5.04378,-10.82732 -0.0224,-0.0429 -0.0446,-0.0915 -0.0673,-0.1345 -0.83754,-1.59106 -1.80942,-3.16476 -2.99264,-4.6739 l -50.70681,-64.6949 c -4.01285,-5.11816 -13.14094,-13.70191 -22.39439,-20.545 -4.62583,-3.42088 -9.23647,-6.36877 -13.34921,-8.17092 -2.05962,-0.90251 -4.02074,-1.52513 -5.85078,-1.71489 -0.39731,-0.0413 -0.7508,-0.0397 -1.10963,-0.0335 -0.0434,7.2e-4 -0.0914,-9.9e-4 -0.1345,0 a 1.0761142,1.0761142 0 0 0 -0.10082,0 z m 36.21434,82.75163 1.91665,2.45464 c -0.66018,0.46711 -1.37516,1.11064 -2.08477,1.71488 0.19804,-1.63194 0.31585,-2.99891 0.20176,-4.03502 -0.005,-0.0506 -0.0273,-0.0843 -0.0335,-0.1345 z m 7.16217,10.32294 c 0.10706,1.04069 0.23203,1.96634 0,3.83327 -0.089,0.71618 -0.19102,1.72849 -0.30263,2.72364 l -12.40769,3.26165 c 0.78299,-0.21853 1.54403,-0.58209 2.25288,-1.14326 1.8644,-1.47598 4.53208,-3.7352 7.1958,-6.25429 0.87745,-0.82981 2.08797,-1.62113 3.26164,-2.42101 z"
       id="path5048"
       inkscape:connector-curvature="0" />
    <path
       id="path4931"
       style="fill:#f9f9f9;fill-opacity:1;stroke:none"
       d="m 277.93396,427.72012 c -0.25341,-3.8e-4 -0.51634,0.02 -0.77338,0.0673 1.65156,1.07411 1.75242,2.8408 2.15201,4.16953 0.59455,1.97696 0.93228,3.98376 0.43713,7.96917 -0.49514,3.9854 -1.8255,12.93788 1.54676,12.64308 2.70327,-3.07597 4.54483,-15.29549 4.2704,-17.78774 -0.27445,-2.49225 -1.43429,-4.06962 -3.0599,-5.21191 -1.12744,-0.79223 -2.79913,-1.84675 -4.57302,-1.84939 z m 17.2161,8.87705 c -0.25341,-3.8e-4 -0.51634,0.02 -0.77338,0.0673 1.65156,1.0741 1.71881,2.87445 2.11839,4.20316 0.59454,1.97698 0.96591,3.95013 0.47075,7.93554 -0.49514,3.98541 -1.82549,12.97151 1.54676,12.6767 2.70327,-3.07596 4.54484,-15.3291 4.27041,-17.82135 -0.27445,-2.49224 -1.43429,-4.06964 -3.0599,-5.21191 -1.12745,-0.79224 -2.79914,-1.84676 -4.57303,-1.84939 z m 17.2161,8.87706 c -0.25341,-3.8e-4 -0.51634,0.02 -0.77338,0.0673 1.65157,1.07411 1.71881,2.87444 2.1184,4.20315 0.59454,1.97698 0.9659,3.95015 0.47075,7.93555 -0.49515,3.98541 -1.8255,12.97151 1.54676,12.6767 2.70327,-3.07597 4.54483,-15.32911 4.27039,-17.82136 -0.27444,-2.49224 -1.4679,-4.03601 -3.09352,-5.17828 -1.12744,-0.79225 -2.7655,-1.88038 -4.5394,-1.88301 z m 17.21611,8.87706 c -0.25341,-3.8e-4 -0.51635,0.02 -0.77338,0.0673 1.65156,1.07412 1.71881,2.87445 2.11839,4.20315 0.59454,1.97698 0.96591,3.98376 0.47076,7.96917 -0.49516,3.98542 -1.8255,12.9379 1.54675,12.64308 2.70327,-3.07597 4.51122,-15.32911 4.23678,-17.82135 -0.27445,-2.49225 -1.43428,-4.03601 -3.0599,-5.17828 -1.12745,-0.79223 -2.76551,-1.88039 -4.5394,-1.88301 z m 19.26725,17.11523 c 0.041,1.09451 -0.0348,2.38718 -0.23538,4.00139 -0.10007,0.8056 -0.21326,1.89727 -0.33625,2.99264 l 5.04377,-1.37862 c -0.10146,-0.0656 -0.19489,-0.13997 -0.26899,-0.23539 l -4.20315,-5.38002 z M 244.84675,430.34288 c -2.29117,0.008 -4.602,0.026 -6.89317,0.0336 -1.80763,3.48785 -2.94928,7.24613 -3.93414,11.02907 -0.38691,6.23666 -0.67875,12.47953 -0.90788,18.72923 -0.1647,10.58255 -0.82371,21.16025 -1.00875,31.7422 0.0628,7.2523 -0.10984,14.60822 1.24413,21.75551 0.0285,-0.0403 0.0383,-0.0945 0.0673,-0.13451 2.8985,-4.01343 7.50231,-6.65788 12.84484,-8.07005 l 13.85358,-3.66514 c 1.1094,-7.0346 2.11231,-14.15184 2.18564,-17.21611 0.27141,-4.16067 -0.19428,-9.2107 -3.79966,-11.90332 -3.58296,-1.52182 -2.35413,2.89938 -1.2105,4.50578 0.89396,4.19943 -1.046,9.33409 -5.34641,10.79369 -4.19963,1.71226 -8.69981,-2.00092 -9.11242,-6.18704 -0.005,-5.34503 0.0446,-10.70139 0.47075,-16.03922 0.51691,-2.8159 -1.08075,-8.00624 3.05989,-8.43993 4.63651,-0.12439 9.26495,-0.25417 13.8872,-0.70613 0.0194,-3.72506 -1.58594,-7.20642 -2.95901,-10.59194 -2.76166,-4.4867 -5.86952,-9.20936 -10.72644,-11.63431 l -1.71489,-4.00141 z m 112.81381,70.12554 c 1.76252,7.6328 4.9625,6.39182 4.9625,6.39182 l 3.42722,-0.80034 -1.68194,-7.28378 1.0296,-0.23776 2.34999,10.1769 c 0,0 0.57392,5.01212 8.27548,3.23373 7.70155,-1.77839 6.44405,-5.97839 6.44405,-5.97839 l -0.5875,-2.54422 -3.57382,0.82525 c 0,0 -4.2314,1.12152 -5.23174,-3.2106 -1.00035,-4.33213 -1.66817,-7.22423 -1.66817,-7.22423 0,0 -0.87163,-4.07398 -4.85994,-3.15303 -3.9883,0.92096 -6.59455,1.52277 -6.59455,1.52277 0,0 -4.13308,0.30528 -2.29116,8.28189 z m 3.2334,3.48382 c -0.16735,-0.72468 0.28312,-1.44565 1.00781,-1.61299 0.72469,-0.16734 1.44565,0.28313 1.613,1.00781 0.16732,0.72468 -0.28314,1.44566 -1.00783,1.61299 -0.72467,0.16734 -1.44565,-0.28312 -1.61298,-1.00781 z m 26.6267,-10.60724 c -1.76252,-7.63279 -4.9625,-6.39182 -4.9625,-6.39182 l -3.42721,0.80035 1.68193,7.28379 -1.02961,0.23774 -2.34998,-10.17688 c 0,0 -0.57392,-5.01214 -8.27548,-3.23373 -7.70155,1.77839 -6.44404,5.97838 -6.44404,5.97838 l 0.58749,2.54422 3.57382,-0.82524 c 0,0 4.2314,-1.12154 5.23174,3.21059 1.00036,4.33212 1.66819,7.22422 1.66819,7.22422 0,0 0.87162,4.074 4.85992,3.15305 3.98831,-0.92096 6.59456,-1.52278 6.59456,-1.52278 0,0 4.13307,-0.30528 2.29117,-8.28189 z m -3.2334,-3.48383 c 0.16734,0.7247 -0.28312,1.44567 -1.00781,1.613 -0.72468,0.16734 -1.44564,-0.28312 -1.61299,-1.00781 -0.16733,-0.72469 0.28314,-1.44565 1.00781,-1.61299 0.72468,-0.16734 1.44566,0.28313 1.61299,1.0078 z m -81.1344,-109.41809 c -1.02529,0.0336 -1.91167,0.27145 -2.58915,0.80701 -1.77102,8.38326 14.99218,46.0231 36.61786,73.60557 l 16.74535,21.35201 1.27776,0.4035 23.26864,-6.15341 c 1.38036,-0.36487 2.7646,-0.52833 4.1359,-0.538 4.42365,-0.0326 8.70676,1.72525 12.30683,4.70752 l -50.57231,-64.52677 c -6.78822,-8.658 -31.27984,-29.98318 -41.19088,-29.65743 z m 43.54464,38.56812 c 7.01373,6.60533 12.54806,13.96092 17.2161,21.68825 -3.04735,-2.33387 -5.25046,-2.84943 -10.15481,-9.2133 -7.421,-9.26051 -4.72299,-8.32469 -7.06129,-12.47495 z"
       inkscape:connector-curvature="0" />
    <path
       id="path5239"
       style="font-size:54.01534270999999876px;font-style:normal;font-variant:normal;font-weight:normal;font-stretch:normal;text-indent:0;text-align:start;text-decoration:none;line-height:125%;letter-spacing:0px;word-spacing:0px;text-transform:none;direction:ltr;block-progression:tb;writing-mode:lr-tb;text-anchor:start;baseline-shift:baseline;color:#000000;fill:#333333;fill-opacity:1;fill-rule:nonzero;stroke:none;stroke-width:1;marker:none;visibility:visible;display:inline;overflow:visible;enable-background:accumulate;font-family:Ubuntu;-inkscape-font-specification:Ubuntu"
       d="m 309.90061,572.7792 0.16812,0.6725 c 1.55114,5.94608 2.58137,6.73927 4.87565,12.47495 2.34304,5.70848 5.71805,10.65874 8.37268,15.66935 -1.01316,2.15663 -2.15459,3.69749 -3.32889,4.60666 l 0,0.0335 c -1.2044,0.97127 -2.90826,1.47951 -5.17829,1.47951 -0.67407,0 -1.35725,-0.10051 -2.08476,-0.30263 l -0.0335,0 c -0.70338,-0.16551 -1.25681,-0.34508 -1.68126,-0.538 l -0.23543,0.47086 -0.50438,-0.10083 -1.10963,4.80841 -0.10082,0.4035 0.4035,0.16813 c 0.21911,0.10954 0.47811,0.23781 0.87426,0.36987 l 0.0335,0 c 0.43788,0.13135 0.90177,0.24847 1.37863,0.33625 0.011,0.002 0.0226,-0.002 0.0335,0 0.51848,0.12787 1.02609,0.2239 1.54676,0.26901 0.011,9.6e-4 0.0226,-9.1e-4 0.0335,0 0.52701,0.0862 1.02111,0.13449 1.51314,0.1345 1.7967,-10e-6 3.41141,-0.22546 4.84203,-0.6725 1.47342,-0.4465 2.80205,-1.14323 3.96777,-2.08477 1.15214,-0.93058 2.17627,-2.13151 3.09352,-3.56427 l 0.0335,0 c 0.005,-0.008 -0.005,-0.0259 0,-0.0335 0.95867,-1.39803 1.86247,-3.07258 2.72365,-5.01016 2.16024,-4.99827 5.12268,-9.82458 7.02766,-15.66934 1.87341,-5.79058 2.69063,-6.93499 4.23678,-13.24833 l 0.16812,-0.67251 -0.70612,0 -6.15342,0 -0.4035,0 -0.10082,0.43713 c -1.87192,8.13428 -4.17947,12.084 -7.1958,20.17513 -3.6584,-7.52682 -6.31126,-10.92305 -8.87705,-20.20875 l -0.1345,-0.40351 -0.40351,0 -6.42241,0 -0.6725,0 z m -44.2844,0 -0.16813,0.20175 c -0.7664,0.89417 -1.69019,1.93202 -2.75727,3.12714 -1.06836,1.15384 -2.19945,2.34935 -3.39614,3.63153 -1.19294,1.27816 -2.39601,2.56413 -3.63152,3.79965 l -2.48827,2.48826 0,-12.50857 0,-0.63888 -0.63888,0.1345 -5.95166,1.00875 -0.43713,0.0673 0,0.47075 0,32.11208 0,0.538 0.53801,0 5.95166,0 0.538,0 0,-0.538 0,-14.92959 c 0.93282,0.68401 1.87614,1.4028 2.89177,2.32014 1.3091,1.18241 2.59658,2.49447 3.8669,3.93415 1.26936,1.39633 2.48815,2.87171 3.63152,4.43853 1.18528,1.52394 2.20804,3.02999 3.09352,4.50577 l 0.16813,0.269 0.30262,0 6.99405,0 0.9415,0 -0.47075,-0.807 c -0.86691,-1.51704 -1.91164,-3.11903 -3.16077,-4.84203 -1.24905,-1.76584 -2.58066,-3.49918 -4.0014,-5.17828 -1.3798,-1.72472 -2.80184,-3.30617 -4.27041,-4.77478 -1.27194,-1.31047 -2.48657,-2.35531 -3.66514,-3.29527 1.00417,-1.04233 2.05436,-2.1171 3.16077,-3.26165 1.28271,-1.32547 2.52601,-2.61776 3.76602,-3.90052 l 0,-0.0335 c 1.24211,-1.32779 2.44107,-2.61514 3.59791,-3.90053 1.15326,-1.28139 2.2462,-2.46344 3.22801,-3.53065 l 0.807,-0.90788 -1.2105,0 -6.99404,0 -0.23538,0 z m 26.22766,-0.70607 c -2.97352,4e-5 -4.15702,0.2206 -6.42242,0.60525 -2.27435,0.38624 -4.091,0.72857 -5.48091,1.07601 l 0.13451,0.538 -0.538,0 0,32.38107 0,0.53801 0.538,0 5.95166,0 0.538,0 0,-0.53801 0,-27.74079 c 0.45349,-0.0986 0.90581,-0.17201 1.17688,-0.23538 0.37239,-0.0871 0.71453,-0.14283 1.51314,-0.20175 0.67365,-0.042 1.32084,-0.0673 1.95026,-0.0673 2.19846,0.0114 4.52581,0.47339 6.08617,2.32014 0.0108,0.0128 0.0229,0.0208 0.0335,0.0335 1.51287,2.20334 1.53023,5.44616 1.68125,8.43993 5.7e-4,0.0111 -5.6e-4,0.0225 0,0.0335 l 0,17.41785 0,0.53801 0.53801,0 5.95166,0 0.538,0 0,-0.53801 0,-18.72923 c -2e-5,-2.29984 -0.20101,-4.39478 -0.63888,-6.32155 -0.443,-1.94906 -1.22883,-3.64879 -2.35376,-5.04377 -1.08132,-1.4417 -2.55541,-2.53721 -4.37128,-3.29527 -0.01,-0.004 -0.0243,0.004 -0.0335,0 -1.83945,-0.80146 -4.10295,-1.21047 -6.79229,-1.21051 z m 90.61993,-0.1345 c -1.88685,2e-5 -3.7185,0.3906 -5.51453,1.14325 -1.80703,0.75733 -3.42897,1.88959 -4.80841,3.39615 -1.38672,1.51453 -2.46906,3.43919 -3.29527,5.71628 -0.83408,2.25459 -1.24414,4.86917 -1.24414,7.8683 0,2.56558 0.28779,4.93743 0.90788,7.12854 l 0,0.0335 c 0.66413,2.15604 1.68674,4.01796 3.02628,5.6154 1.34444,1.60334 3.0358,2.87213 5.0774,3.79966 l 0,0.0335 c 2.09737,0.88932 4.56529,1.31139 7.36393,1.31139 2.2132,0 4.20456,-0.23157 5.95165,-0.67251 1.75475,-0.43258 2.98566,-0.8062 3.76603,-1.24413 l 0.30262,-0.20175 -0.0335,-0.36987 -0.807,-5.01016 -0.10082,-0.70613 -0.6725,0.33625 c -0.62333,0.31094 -1.62562,0.66671 -2.95902,1.04238 -0.0135,0.004 -0.02,-0.004 -0.0335,0 -1.26483,0.32171 -2.87648,0.50438 -4.8084,0.50438 -3.4173,0 -5.80507,-0.86565 -7.3303,-2.52189 -1.44593,-1.5701 -2.31913,-3.93498 -2.62276,-6.99404 l 20.91487,0 0.47075,0 0.0673,-0.47076 c 0.0429,-0.36519 0.0673,-0.77327 0.0673,-1.17688 -3e-5,-0.4275 -3e-5,-0.75228 0,-1.00875 -3e-5,-5.79989 -1.15787,-10.1943 -3.53064,-13.11383 -2.36124,-2.9499 -5.80032,-4.4385 -10.15481,-4.43853 z m -0.0673,5.07741 c 2.41808,2e-5 4.4035,0.97538 5.78354,2.82451 l 0.0335,0 c 0.007,0.008 -0.007,0.0261 0,0.0335 1.40426,1.81698 2.09268,4.15486 2.05115,6.92679 l -0.01,0.54041 -0.52839,-0.002 -15.6021,0 -0.60526,0 0.0673,-0.60526 c 0.12493,-1.19203 0.36516,-2.34989 0.73976,-3.49703 l 0,-0.0335 c 0.42158,-1.16192 0.99024,-2.18977 1.71488,-3.09351 0.7301,-0.91051 1.62553,-1.63925 2.65639,-2.18565 1.0933,-0.60261 2.33086,-0.90784 3.69877,-0.90787 z m -25.28616,-5.34642 c -4.58324,6e-5 -8.06734,1.20476 -10.28931,3.69878 -2.20607,2.43122 -3.26164,5.85869 -3.26164,10.22206 l 0,21.083 0,0.53801 0.53799,0 5.95167,0 0.538,0 0,-0.53801 0,-14.45884 12.30683,0 0.53801,0 0,-0.538 0,-5.01015 0,-0.53801 -0.53801,0 -12.30683,0 0,-0.4035 c 0,-2.48757 0.55649,-4.40518 1.58039,-5.78354 0.98704,-1.36663 2.70024,-2.08471 5.38003,-2.08476 1.33453,5e-5 2.45213,0.1308 3.32889,0.36987 l 0.0335,0 c 0.91586,0.2082 1.60218,0.44808 2.05113,0.67252 l 0.60526,0.30262 0.16812,-0.67251 1.07601,-5.14465 0.10082,-0.43712 -0.4035,-0.16814 c -0.58944,-0.24552 -1.49362,-0.48024 -2.79089,-0.73975 -1.28917,-0.26666 -2.82746,-0.36982 -4.60666,-0.36988 z"
       inkscape:connector-curvature="0"
       sodipodi:nodetypes="ccccccsccccccccccccccccccccccccccccccccccccccssccccccccccccccscccccccccccccccscccccccccccccccccccccccccccccccsccccccccscscccccscccccccccsscccccccccccccccccccccccccccsccccccccccccccsccccccccccccc" />
  </g>
</svg>
